<svg xmlns="http://www.w3.org/2000/svg" viewBox="0 0 64 64">
  <rect x="4" y="4" width="56" height="56" rx="14" fill="#f2f2f2"/>
  <circle cx="46" cy="14" r="4" fill="#f37726"/>
  <circle cx="18" cy="50" r="4" fill="#f37726"/>
  <path d="M32 18c11 0 20 5 20 11 0 3-3 5-7 7 3-2 4-4 4-6 0-5-8-9-17-9s-17 4-17 9c0 2 1 4 4 6-4-2-7-4-7-7 0-6 9-11 20-11z" fill="#f37726"/>
  <path d="M32 46c-11 0-20-5-20-11 0-3 3-5 7-7-3 2-4 4-4 6 0 5 8 9 17 9s17-4 17-9c0-2-1-4-4-6 4 2 7 4 7 7 0 6-9 11-20 11z" fill="#f37726"/>
</svg>
